# xmcd
#
# Track frame offsets: 
#        150
#        18166
#        44508
#        75605
#        100819
#
# Disc length: 1587 seconds
#
# Revision: 0
# Processed by: cddbd v1.5.1PL2 Copyright (c) Steve Scherf et al.
# Submitted via: ExactAudioCopy v0.95a5
#
DISCID=30063105
DTITLE=E Nomine - Das Tier in mir
DYEAR=1900
DGENRE=
TTITLE0=radio mix
TTITLE1=clubb mix
TTITLE2=rocco remix
TTITLE3=beam vs. cyrus mix
TTITLE4=single version
EXTD=
EXTT0=
EXTT1=
EXTT2=
EXTT3=
EXTT4=
PLAYORDER=
